<svg xmlns="http://www.w3.org/2000/svg" width="600" height="600">
<defs>
</defs>
<path d="M0,600 C0,600 0,0 0,0 C0,0 600,0 600,0 C600,0 600,600 600,600 C600,600 0,600 0,600 Z M94.8767,234.114 C94.7184,233.684 93.9781,233.898 94.398,234.316 C88.2512,227.454 79.5701,225.443 70.6448,226.612 C62.3191,227.702 56.4505,233.28 50.7586,239.57 C50.7586,239.57 25.0608,267.966 25.0608,267.966 C20.9087,272.554 20.0228,279.743 22.9756,285.005 C27.1221,292.395 36.259,292.645 43.0991,287.886 C43.0991,287.886 55.7517,275.638 55.7517,275.638 C55.7517,275.638 56.9443,276.125 56.9443,276.125 C70.4523,287.65 90.7275,284.15 99.8392,268.935 C107.52,262.473 114.061,254.777 121.282,247.313 C124.776,243.701 128.131,240.563 129.604,235.667 C131.415,229.642 129.988,223.49 124.511,220.056 C120.314,217.424 113.206,217.143 108.891,221.198 C108.891,221.198 94.8767,234.114 94.8767,234.114 Z M169.647,270.863 C169.647,270.863 197.611,270.472 197.611,270.472 C197.205,267.024 198.641,262.41 196.913,259.054 C194.452,254.276 188.003,254.696 182.827,254.142 C182.827,254.142 189.072,246.237 189.072,246.237 C189.072,246.237 183.696,245.909 183.696,245.909 C183.696,245.909 176.541,254.623 176.541,254.623 C171.868,254.452 166.287,255.421 163.913,259.97 C162.395,262.879 163.513,266.791 163.237,269.95 C162.919,273.586 164.419,276.855 167.862,278.302 C172.168,280.111 177.722,280.571 182.296,279.335 C185.643,270.091 175.306,277.361 169.647,270.863 Z M344.884,252.025 C345.275,249.447 345.185,248.514 344.863,246.851 C344.863,246.851 318.85,246.924 318.85,246.924 C317.619,246.928 317.759,251.714 319.086,251.729 C319.086,251.729 344.884,252.025 344.884,252.025 Z M531.315,279.4 C531.315,279.4 530.731,255.411 530.731,255.411 C530.696,254.003 530.198,254.145 531.721,252.541 C533.172,251.014 531.802,248.363 529.666,247.828 C528.441,247.521 526.895,247.334 525.513,248.117 C523.937,249.009 522.897,251.351 524.334,252.784 C524.334,252.784 526.037,254.483 526.037,254.483 C526.254,254.699 524.942,255.548 524.404,255.716 C524.404,255.716 524.386,279.431 524.386,279.431 C526.864,280.211 529.198,280.185 531.315,279.4 Z M147.233,279.717 C147.233,279.717 147.327,254.285 147.327,254.285 C147.327,254.285 161.334,253.702 161.334,253.702 C161.475,251.15 161.461,249.772 160.998,248.041 C160.998,248.041 126.068,248.03 126.068,248.03 C126.068,248.03 126.011,254.018 126.011,254.018 C126.011,254.018 140.151,254.085 140.151,254.085 C140.151,254.085 140.231,279.921 140.231,279.921 C142.484,280.1 144.6,280.321 147.233,279.717 Z M238.272,257.126 C236.922,256.599 236.066,257.775 237.296,259.102 C237.339,259.827 236.137,260.221 235.621,260.23 C235.621,260.23 235.789,254.606 235.789,254.606 C235.789,254.606 208.059,254.813 208.059,254.813 C203.278,254.849 200.012,258.362 200.023,262.975 C200.023,262.975 200.045,271.991 200.045,271.991 C200.058,277.411 204.493,279.682 209.326,279.718 C209.326,279.718 233.985,279.903 233.985,279.903 C234.865,279.91 235.619,279.195 235.722,278.619 C235.797,278.203 235.557,277.799 235.418,277.269 C235.42,277.141 236.195,275.791 236.588,275.897 C236.981,276.003 237.613,277.058 238.137,277.254 C238.132,277.964 238.338,279.501 239.13,279.797 C241.066,280.272 242.879,280.109 245.124,279.946 C245.124,279.946 245.231,260.746 245.231,260.746 C245.231,260.746 263.195,260.485 263.195,260.485 C264.561,261.093 265.555,261.636 266.265,262.959 C266.265,262.959 266.218,279.956 266.218,279.956 C266.218,279.956 272.975,279.913 272.975,279.913 C272.975,279.913 272.662,261.354 272.662,261.354 C272.527,253.337 256.973,254.622 245.429,254.601 C245.429,254.601 245.054,247.972 245.054,247.972 C245.054,247.972 238.289,248.007 238.289,248.007 C238.289,248.007 238.272,257.126 238.272,257.126 Z M379.721,273.745 C377.556,273.728 375.436,272.644 375.457,270.76 C375.457,270.76 375.62,255.745 375.62,255.745 C375.677,255.173 377.692,254.176 378.267,254.172 C378.267,254.172 403.969,253.987 403.969,253.987 C404.589,251.919 404.592,250.113 403.965,248.001 C403.965,248.001 378.06,248.348 378.06,248.348 C374.983,248.389 369.518,250.363 369.009,253.981 C368.091,260.515 367.863,267.517 369.091,273.914 C369.854,277.884 375.541,279.703 378.898,279.732 C378.898,279.732 403.979,279.949 403.979,279.949 C404.565,277.898 404.58,276.102 403.975,273.93 C403.975,273.93 379.721,273.745 379.721,273.745 Z M511.731,260.99 C511.731,260.99 520.971,260.534 520.971,260.534 C522.503,260.459 522.661,255.288 521.201,254.88 C521.201,254.88 511.417,254.318 511.417,254.318 C512.112,252.293 512.354,249.136 510.844,248.307 C509.249,247.432 506.864,247.874 505.061,248.038 C505.061,248.038 504.914,254.691 504.914,254.691 C503.486,254.425 502.251,254.491 501.538,254.869 C500.613,255.359 501.092,256.999 500.953,257.857 C500.671,259.592 501.128,260.617 502.073,260.599 C502.073,260.599 504.708,260.548 504.708,260.548 C504.708,260.548 505.094,279.738 505.094,279.738 C506.854,280.415 510.998,280.493 511.576,278.984 C511.576,278.984 511.731,260.99 511.731,260.99 Z M331.698,273.808 C326.54,274.313 322.452,274.587 319.47,270.884 C319.47,270.884 347.251,270.492 347.251,270.492 C347.251,270.492 346.878,259.986 346.878,259.986 C346.609,252.407 314.791,251.9 313.312,260.289 C312.569,264.504 312.345,269.544 313.317,273.902 C314.226,277.976 319.304,279.767 322.869,279.766 C322.869,279.766 331.997,279.765 331.997,279.765 C332.413,277.929 332.638,275.931 331.698,273.808 Z M444.596,274.253 C439.795,273.735 435.448,274.717 432.505,270.866 C432.505,270.866 460.338,270.499 460.338,270.499 C460.338,270.499 460.022,259.966 460.022,259.966 C459.843,253.988 442.592,252.939 431.833,255.631 C428.222,256.535 425.843,259.277 425.964,263.01 C425.964,263.01 426.311,273.673 426.311,273.673 C426.473,278.672 436.362,280.828 444.956,279.779 C445.681,278.637 445.794,274.86 444.596,274.253 Z M569.448,254.724 C569.448,254.724 555.397,272.205 555.397,272.205 C555.397,272.205 540.784,254.667 540.784,254.667 C538.477,254.25 535.436,254.063 532.341,254.742 C532.341,254.742 552.183,278.817 552.183,278.817 C552.935,279.729 554.561,280.494 555.467,280.597 C556.131,280.673 557.195,279.642 557.852,278.854 C557.852,278.854 577.873,254.857 577.873,254.857 C574.784,254.07 572.241,254.247 569.448,254.724 Z M303.334,261.682 C303.334,261.682 303.216,279.987 303.216,279.987 C303.216,279.987 310.063,279.884 310.063,279.884 C310.063,279.884 309.64,260.089 309.64,260.089 C309.562,256.444 304.296,254.774 301.084,254.771 C301.084,254.771 284.908,254.757 284.908,254.757 C281.712,254.754 276.457,256.494 276.379,260.019 C276.379,260.019 275.936,279.83 275.936,279.83 C278.454,280.242 280.426,280.304 282.677,279.478 C282.677,279.478 282.997,261.222 282.997,261.222 C289.966,260.112 296.958,259.564 303.334,261.682 Z M413.507,261.265 C417.33,260.111 420.124,260.256 423.367,260.735 C424.111,258.615 424.038,257.167 423.775,254.846 C415.697,253.561 407.089,255.833 407.047,260.943 C407.047,260.943 406.89,279.921 406.89,279.921 C406.89,279.921 413.303,279.917 413.303,279.917 C413.303,279.917 413.507,261.265 413.507,261.265 Z M491.174,279.651 C495.989,279.667 499.213,276.377 499.197,272.033 C499.197,272.033 499.159,261.989 499.159,261.989 C499.133,255.148 489.458,253.746 480.279,254.794 C480.279,254.794 480.484,259.685 480.484,259.685 C480.484,259.685 490.04,260.281 490.04,260.281 C490.047,260.527 489.818,260.893 489.48,260.908 C489.48,260.908 471.048,261.721 471.048,261.721 C465.169,261.981 462.378,266.097 462.702,271.493 C462.952,275.651 466.233,279.568 471.482,279.585 C471.482,279.585 491.174,279.651 491.174,279.651 Z " fill="rgb(255,255,255)"/>
<path d="M94.398,234.316 C94.398,234.316 56.8654,274.387 56.8654,274.387 C54.9695,275.266 54.2954,273.638 53.0501,271.996 C45.7527,262.373 44.9597,249.758 50.7586,239.57 C56.4505,233.28 62.3191,227.702 70.6448,226.612 C79.5701,225.443 88.2512,227.454 94.398,234.316 Z " fill="rgb(255,0,107)"/>
<path d="M99.8392,268.935 C90.7275,284.15 70.4523,287.65 56.9443,276.125 C57.0342,275.659 57.0962,275.02 56.8654,274.387 C56.8654,274.387 94.398,234.316 94.398,234.316 C93.9781,233.898 94.7184,233.684 94.8767,234.114 C104.717,243.119 106.587,257.669 99.8392,268.935 Z " fill="rgb(0,148,253)"/>
<path d="M99.8392,268.935 C106.587,257.669 104.717,243.119 94.8767,234.114 C94.8767,234.114 108.891,221.198 108.891,221.198 C113.206,217.143 120.314,217.424 124.511,220.056 C129.988,223.49 131.415,229.642 129.604,235.667 C128.131,240.563 124.776,243.701 121.282,247.313 C114.061,254.777 107.52,262.473 99.8392,268.935 Z " fill="rgb(0,247,252)"/>
<path d="M56.8654,274.387 C57.0962,275.02 57.0342,275.659 56.9443,276.125 C56.9443,276.125 55.7517,275.638 55.7517,275.638 C55.7517,275.638 43.0991,287.886 43.0991,287.886 C36.259,292.645 27.1221,292.395 22.9756,285.005 C20.0228,279.743 20.9087,272.554 25.0608,267.966 C25.0608,267.966 50.7586,239.57 50.7586,239.57 C44.9597,249.758 45.7527,262.373 53.0501,271.996 C54.2954,273.638 54.9695,275.266 56.8654,274.387 Z " fill="rgb(255,252,0)"/>
<path d="M169.647,270.863 C175.306,277.361 185.643,270.091 182.296,279.335 C177.722,280.571 172.168,280.111 167.862,278.302 C164.419,276.855 162.919,273.586 163.237,269.95 C163.513,266.791 162.395,262.879 163.913,259.97 C166.287,255.421 171.868,254.452 176.541,254.623 C176.541,254.623 183.696,245.909 183.696,245.909 C183.696,245.909 189.072,246.237 189.072,246.237 C189.072,246.237 182.827,254.142 182.827,254.142 C188.003,254.696 194.452,254.276 196.913,259.054 C198.641,262.41 197.205,267.024 197.611,270.472 C197.611,270.472 169.647,270.863 169.647,270.863 Z M190.39,264.049 C191.645,264.029 191.088,261.311 190.428,261.116 C190.428,261.116 188.372,260.511 188.372,260.511 C188.372,260.511 172.668,260.517 172.668,260.517 C171.557,260.517 170.557,261.159 170.104,261.615 C169.597,262.126 169.793,264.367 170.907,264.349 C170.907,264.349 190.39,264.049 190.39,264.049 Z " fill="rgb(0,0,0)"/>
<path d="M444.596,274.253 C445.794,274.86 445.681,278.637 444.956,279.779 C436.362,280.828 426.473,278.672 426.311,273.673 C426.311,273.673 425.964,263.01 425.964,263.01 C425.843,259.277 428.222,256.535 431.833,255.631 C442.592,252.939 459.843,253.988 460.022,259.966 C460.022,259.966 460.338,270.499 460.338,270.499 C460.338,270.499 432.505,270.866 432.505,270.866 C435.448,274.717 439.795,273.735 444.596,274.253 Z M454.017,264.219 C454.117,261.195 452.106,260.478 450.682,260.489 C450.682,260.489 434.943,260.605 434.943,260.605 C433.47,260.616 432.756,261.707 432.572,262.507 C432.456,263.01 433.017,264.371 433.975,264.364 C433.975,264.364 454.017,264.219 454.017,264.219 Z " fill="rgb(0,0,0)"/>
<path d="M331.698,273.808 C332.638,275.931 332.413,277.929 331.997,279.765 C331.997,279.765 322.869,279.766 322.869,279.766 C319.304,279.767 314.226,277.976 313.317,273.902 C312.345,269.544 312.569,264.504 313.312,260.289 C314.791,251.9 346.609,252.407 346.878,259.986 C346.878,259.986 347.251,270.492 347.251,270.492 C347.251,270.492 319.47,270.884 319.47,270.884 C322.452,274.587 326.54,274.313 331.698,273.808 Z M340.457,264.385 C341.35,262.281 339.871,260.554 338.302,260.553 C338.302,260.553 321.696,260.543 321.696,260.543 C320.727,260.542 319.914,261.529 319.504,261.907 C319.098,262.281 319.26,264.292 319.857,264.294 C319.857,264.294 340.457,264.385 340.457,264.385 Z " fill="rgb(0,0,0)"/>
<path d="M491.174,279.651 C491.174,279.651 471.482,279.585 471.482,279.585 C466.233,279.568 462.952,275.651 462.702,271.493 C462.378,266.097 465.169,261.981 471.048,261.721 C471.048,261.721 489.48,260.908 489.48,260.908 C489.818,260.893 490.047,260.527 490.04,260.281 C490.04,260.281 480.484,259.685 480.484,259.685 C480.484,259.685 480.279,254.794 480.279,254.794 C489.458,253.746 499.133,255.148 499.159,261.989 C499.159,261.989 499.197,272.033 499.197,272.033 C499.213,276.377 495.989,279.667 491.174,279.651 Z M490.788,273.588 C492.964,273.547 493.096,267.412 491.358,267.431 C491.358,267.431 471.766,267.553 471.766,267.553 C469.718,267.566 469.24,270.031 469.416,271.264 C469.623,272.721 470.923,273.962 473.016,273.922 C473.016,273.922 490.788,273.588 490.788,273.588 Z " fill="rgb(0,0,0)"/>
<path d="M379.721,273.745 C379.721,273.745 403.975,273.93 403.975,273.93 C404.58,276.102 404.565,277.898 403.979,279.949 C403.979,279.949 378.898,279.732 378.898,279.732 C375.541,279.703 369.854,277.884 369.091,273.914 C367.863,267.517 368.091,260.515 369.009,253.981 C369.518,250.363 374.983,248.389 378.06,248.348 C378.06,248.348 403.965,248.001 403.965,248.001 C404.592,250.113 404.589,251.919 403.969,253.987 C403.969,253.987 378.267,254.172 378.267,254.172 C377.692,254.176 375.677,255.173 375.62,255.745 C375.62,255.745 375.457,270.76 375.457,270.76 C375.436,272.644 377.556,273.728 379.721,273.745 Z " fill="rgb(0,0,0)"/>
<path d="M235.621,260.23 C235.621,260.23 207.846,260.743 207.846,260.743 C206.093,265.208 206.792,272.468 207.456,272.939 C207.962,273.297 208.986,273.809 210.106,273.828 C210.106,273.828 235.506,274.238 235.506,274.238 C236.18,275.715 235.082,276.515 235.418,277.269 C235.557,277.799 235.797,278.203 235.722,278.619 C235.619,279.195 234.865,279.91 233.985,279.903 C233.985,279.903 209.326,279.718 209.326,279.718 C204.493,279.682 200.058,277.411 200.045,271.991 C200.045,271.991 200.023,262.975 200.023,262.975 C200.012,258.362 203.278,254.849 208.059,254.813 C208.059,254.813 235.789,254.606 235.789,254.606 C235.789,254.606 235.621,260.23 235.621,260.23 Z " fill="rgb(0,0,0)"/>
<path d="M238.137,277.254 C238.137,277.254 238.272,257.126 238.272,257.126 C238.272,257.126 238.289,248.007 238.289,248.007 C238.289,248.007 245.054,247.972 245.054,247.972 C245.054,247.972 245.429,254.601 245.429,254.601 C256.973,254.622 272.527,253.337 272.662,261.354 C272.662,261.354 272.975,279.913 272.975,279.913 C272.975,279.913 266.218,279.956 266.218,279.956 C266.218,279.956 266.265,262.959 266.265,262.959 C265.555,261.636 264.561,261.093 263.195,260.485 C263.195,260.485 245.231,260.746 245.231,260.746 C245.231,260.746 245.124,279.946 245.124,279.946 C242.879,280.109 241.066,280.272 239.13,279.797 C238.338,279.501 238.132,277.964 238.137,277.254 Z " fill="rgb(0,0,0)"/>
<path d="M303.334,261.682 C296.958,259.564 289.966,260.112 282.997,261.222 C282.997,261.222 282.677,279.478 282.677,279.478 C280.426,280.304 278.454,280.242 275.936,279.83 C275.936,279.83 276.379,260.019 276.379,260.019 C276.457,256.494 281.712,254.754 284.908,254.757 C284.908,254.757 301.084,254.771 301.084,254.771 C304.296,254.774 309.562,256.444 309.64,260.089 C309.64,260.089 310.063,279.884 310.063,279.884 C310.063,279.884 303.216,279.987 303.216,279.987 C303.216,279.987 303.334,261.682 303.334,261.682 Z " fill="rgb(0,0,0)"/>
<path d="M147.233,279.717 C144.6,280.321 142.484,280.1 140.231,279.921 C140.231,279.921 140.151,254.085 140.151,254.085 C140.151,254.085 126.011,254.018 126.011,254.018 C126.011,254.018 126.068,248.03 126.068,248.03 C126.068,248.03 160.998,248.041 160.998,248.041 C161.461,249.772 161.475,251.15 161.334,253.702 C161.334,253.702 147.327,254.285 147.327,254.285 C147.327,254.285 147.233,279.717 147.233,279.717 Z " fill="rgb(0,0,0)"/>
<path d="M569.448,254.724 C572.241,254.247 574.784,254.07 577.873,254.857 C577.873,254.857 557.852,278.854 557.852,278.854 C557.195,279.642 556.131,280.673 555.467,280.597 C554.561,280.494 552.935,279.729 552.183,278.817 C552.183,278.817 532.341,254.742 532.341,254.742 C535.436,254.063 538.477,254.25 540.784,254.667 C540.784,254.667 555.397,272.205 555.397,272.205 C555.397,272.205 569.448,254.724 569.448,254.724 Z " fill="rgb(0,0,0)"/>
<path d="M511.731,260.99 C511.731,260.99 511.576,278.984 511.576,278.984 C510.998,280.493 506.854,280.415 505.094,279.738 C505.094,279.738 504.708,260.548 504.708,260.548 C504.708,260.548 502.073,260.599 502.073,260.599 C501.128,260.617 500.671,259.592 500.953,257.857 C501.092,256.999 500.613,255.359 501.538,254.869 C502.251,254.491 503.486,254.425 504.914,254.691 C504.914,254.691 505.061,248.038 505.061,248.038 C506.864,247.874 509.249,247.432 510.844,248.307 C512.354,249.136 512.112,252.293 511.417,254.318 C511.417,254.318 521.201,254.88 521.201,254.88 C522.661,255.288 522.503,260.459 520.971,260.534 C520.971,260.534 511.731,260.99 511.731,260.99 Z " fill="rgb(0,0,0)"/>
<path d="M531.315,279.4 C529.198,280.185 526.864,280.211 524.386,279.431 C524.386,279.431 524.404,255.716 524.404,255.716 C524.942,255.548 526.254,254.699 526.037,254.483 C526.037,254.483 524.334,252.784 524.334,252.784 C522.897,251.351 523.937,249.009 525.513,248.117 C526.895,247.334 528.441,247.521 529.666,247.828 C531.802,248.363 533.172,251.014 531.721,252.541 C530.198,254.145 530.696,254.003 530.731,255.411 C530.731,255.411 531.315,279.4 531.315,279.4 Z " fill="rgb(0,0,0)"/>
<path d="M413.507,261.265 C413.507,261.265 413.303,279.917 413.303,279.917 C413.303,279.917 406.89,279.921 406.89,279.921 C406.89,279.921 407.047,260.943 407.047,260.943 C407.089,255.833 415.697,253.561 423.775,254.846 C424.038,257.167 424.111,258.615 423.367,260.735 C420.124,260.256 417.33,260.111 413.507,261.265 Z " fill="rgb(0,0,0)"/>
<path d="M344.884,252.025 C344.884,252.025 319.086,251.729 319.086,251.729 C317.759,251.714 317.619,246.928 318.85,246.924 C318.85,246.924 344.863,246.851 344.863,246.851 C345.185,248.514 345.275,249.447 344.884,252.025 Z " fill="rgb(0,0,0)"/>
<path d="M238.137,277.254 C237.613,277.058 236.981,276.003 236.588,275.897 C236.195,275.791 235.42,277.141 235.418,277.269 C235.082,276.515 236.18,275.715 235.506,274.238 C235.506,274.238 210.106,273.828 210.106,273.828 C208.986,273.809 207.962,273.297 207.456,272.939 C206.792,272.468 206.093,265.208 207.846,260.743 C207.846,260.743 235.621,260.23 235.621,260.23 C236.137,260.221 237.339,259.827 237.296,259.102 C236.066,257.775 236.922,256.599 238.272,257.126 C238.272,257.126 238.137,277.254 238.137,277.254 Z " fill="rgb(255,255,255)"/>
<path d="M190.39,264.049 C190.39,264.049 170.907,264.349 170.907,264.349 C169.793,264.367 169.597,262.126 170.104,261.615 C170.557,261.159 171.557,260.517 172.668,260.517 C172.668,260.517 188.372,260.511 188.372,260.511 C188.372,260.511 190.428,261.116 190.428,261.116 C191.088,261.311 191.645,264.029 190.39,264.049 Z " fill="rgb(254,254,254)"/>
<path d="M454.017,264.219 C454.017,264.219 433.975,264.364 433.975,264.364 C433.017,264.371 432.456,263.01 432.572,262.507 C432.756,261.707 433.47,260.616 434.943,260.605 C434.943,260.605 450.682,260.489 450.682,260.489 C452.106,260.478 454.117,261.195 454.017,264.219 Z " fill="rgb(253,253,253)"/>
<path d="M340.457,264.385 C340.457,264.385 319.857,264.294 319.857,264.294 C319.26,264.292 319.098,262.281 319.504,261.907 C319.914,261.529 320.727,260.542 321.696,260.543 C321.696,260.543 338.302,260.553 338.302,260.553 C339.871,260.554 341.35,262.281 340.457,264.385 Z " fill="rgb(253,253,253)"/>
<path d="M490.788,273.588 C490.788,273.588 473.016,273.922 473.016,273.922 C470.923,273.962 469.623,272.721 469.416,271.264 C469.24,270.031 469.718,267.566 471.766,267.553 C471.766,267.553 491.358,267.431 491.358,267.431 C493.096,267.412 492.964,273.547 490.788,273.588 Z " fill="rgb(255,255,255)"/>
</svg>